<svg xmlns="http://www.w3.org/2000/svg" width="732" height="488" viewBox="0 0 732 488" version="1.1"><path d="M -0 406.501 L -0 488.003 366.250 487.751 L 732.500 487.500 732.756 406 L 733.012 324.500 588.506 324.757 C 509.028 324.898, 444 325.265, 444 325.573 C 444 325.881, 445.238 327.777, 446.750 329.786 L 449.500 333.439 446.500 331.248 C 444.850 330.042, 442.375 328.154, 441 327.050 C 438.773 325.264, 436.996 325.042, 424.750 325.022 C 413.110 325.003, 411 325.233, 411 326.518 C 411 327.354, 412.610 333.018, 414.579 339.107 C 416.547 345.195, 417.934 350.399, 417.661 350.672 C 417.388 350.945, 414.357 346.968, 410.926 341.834 C 407.495 336.700, 403.355 330.794, 401.727 328.709 L 398.766 324.917 391.633 325.209 L 384.500 325.500 384.181 344 L 383.862 362.500 378.134 344 L 372.406 325.500 366.335 325.206 L 360.263 324.911 357.709 333.206 C 356.305 337.768, 353.585 346.450, 351.666 352.500 L 348.176 363.500 348.088 344.208 L 348 324.916 340.250 325.208 L 332.500 325.500 323.577 338.744 C 318.670 346.028, 314.513 351.847, 314.341 351.674 C 314.168 351.501, 315.821 345.609, 318.013 338.581 C 320.206 331.553, 322 325.622, 322 325.401 C 322 325.181, 315.740 325, 308.090 325 L 294.180 325 288.902 329.172 L 283.625 333.343 285.812 329.803 C 287.016 327.857, 288 325.980, 288 325.632 C 288 325.284, 223.200 325, 144 325 L 0 325 -0 406.501 M 0.477 406.500 C 0.477 451.600, 0.600 469.904, 0.750 447.175 C 0.900 424.447, 0.900 387.547, 0.750 365.175 C 0.600 342.804, 0.477 361.400, 0.477 406.500" stroke="none" fill="#278e43" fill-rule="evenodd"/><path d="M 365.230 130 C 364.616 133.575, 362.711 145.950, 360.996 157.500 C 359.282 169.050, 357.557 179.325, 357.163 180.333 C 356.625 181.711, 354.912 178.982, 350.258 169.333 C 346.855 162.275, 341.140 150.425, 337.559 143 C 333.979 135.575, 331.038 129.981, 331.025 130.569 C 331.011 131.158, 332.592 142.408, 334.537 155.569 C 336.482 168.731, 338.354 181.525, 338.696 184 L 339.318 188.500 331.909 180.514 C 327.834 176.122, 322.475 170.316, 320 167.614 C 317.525 164.911, 311.785 158.830, 307.244 154.100 L 298.988 145.500 302.682 153.500 C 304.713 157.900, 310.293 169.600, 315.083 179.500 C 319.872 189.400, 323.642 197.658, 323.460 197.851 C 323.165 198.166, 301.610 185.986, 279.040 172.750 L 270.581 167.789 281.040 179.031 C 304.655 204.414, 311.912 212.422, 311.590 212.743 C 311.404 212.929, 298.532 210.126, 282.986 206.514 C 267.439 202.902, 254.585 200.081, 254.421 200.246 C 254.257 200.410, 265.878 207.284, 280.247 215.522 L 306.371 230.500 281.436 232.255 C 241.301 235.080, 241.719 234.424, 275.236 241.964 C 291.040 245.520, 303.640 248.727, 303.236 249.091 C 302.831 249.455, 290.479 254.421, 275.786 260.127 C 261.093 265.832, 249.445 270.630, 249.901 270.788 C 250.357 270.947, 262.327 270.160, 276.501 269.038 C 290.675 267.917, 303.617 267, 305.262 267 C 307.860 267, 305.272 269.384, 285.587 285.128 C 273.121 295.098, 263.099 303.433, 263.316 303.649 C 263.533 303.866, 275.756 299.290, 290.480 293.480 C 305.204 287.670, 317.359 283.048, 317.491 283.208 C 317.708 283.470, 308.258 297.323, 293.759 318 C 290.867 322.125, 287.402 327.287, 286.061 329.472 L 283.622 333.444 288.061 329.840 C 310.200 311.870, 330.332 295.999, 330.621 296.288 C 330.816 296.482, 327.167 308.959, 322.514 324.014 C 317.861 339.069, 314.183 351.516, 314.340 351.674 C 314.498 351.832, 322.130 340.866, 331.299 327.305 L 347.970 302.648 348.235 332.953 L 348.500 363.258 353.814 345.879 C 356.737 336.321, 360.731 323.337, 362.689 317.027 L 366.250 305.555 375.069 334.027 L 383.889 362.500 384.001 344 C 384.063 333.825, 384.063 320.335, 384.001 314.022 L 383.887 302.545 386.799 306.564 C 388.400 308.774, 392.408 314.614, 395.705 319.541 C 409.792 340.596, 417.228 351.106, 417.701 350.632 C 417.979 350.354, 416.849 345.935, 415.188 340.813 C 413.528 335.691, 409.852 324.075, 407.020 315 C 404.188 305.925, 401.689 297.938, 401.467 297.250 C 401.245 296.563, 401.281 296, 401.549 296 C 401.816 296, 412.039 303.937, 424.267 313.639 C 436.495 323.340, 447.144 331.777, 447.931 332.389 C 448.718 333, 446.862 329.900, 443.807 325.500 C 426.187 300.126, 415.042 283.624, 415.330 283.337 C 415.599 283.068, 447.134 295.224, 466.250 302.965 C 468.863 304.024, 471 304.770, 471 304.624 C 471 304.479, 460.603 296.066, 447.896 285.930 C 428.554 270.501, 425.197 267.450, 427.279 267.195 C 428.646 267.027, 441.584 267.823, 456.030 268.964 C 470.475 270.106, 482.449 270.885, 482.638 270.696 C 482.827 270.507, 470.844 265.660, 456.008 259.926 C 441.173 254.192, 429.027 249.246, 429.018 248.936 C 429.008 248.626, 441.799 245.487, 457.441 241.961 C 473.084 238.434, 485.706 235.373, 485.490 235.157 C 485.274 234.941, 471.770 233.805, 455.480 232.632 L 425.863 230.500 451.891 215.543 C 466.206 207.316, 477.793 200.459, 477.639 200.306 C 477.486 200.152, 464.849 202.946, 449.558 206.513 C 434.267 210.081, 421.326 213, 420.801 213 C 420.276 213, 428.064 204.113, 438.109 193.250 C 458.357 171.352, 460.958 168.430, 459.500 169.218 C 457.104 170.511, 414.190 195.375, 411.288 197.151 L 408.075 199.117 415.154 184.308 C 429.487 154.322, 433.863 145, 433.606 145 C 433.461 145, 424.395 154.655, 413.460 166.455 C 402.525 178.256, 393.450 187.783, 393.293 187.627 C 393.137 187.470, 395 174.333, 397.433 158.433 C 399.866 142.533, 401.725 129.392, 401.565 129.231 C 401.404 129.071, 400.343 131.090, 399.208 133.720 C 398.072 136.349, 392.216 148.536, 386.194 160.803 L 375.245 183.105 374.076 175.303 C 373.433 171.011, 371.430 157.600, 369.626 145.500 L 366.346 123.500 365.230 130" stroke="none" fill="#febd11" fill-rule="evenodd"/><path d="M 0 244.003 L 0 325.007 144.680 324.753 L 289.360 324.500 303.541 304 C 311.341 292.725, 317.616 283.369, 317.486 283.208 C 317.356 283.048, 305.204 287.670, 290.480 293.480 C 275.756 299.290, 263.533 303.866, 263.316 303.649 C 263.099 303.433, 273.121 295.098, 285.587 285.128 C 305.272 269.384, 307.860 267, 305.262 267 C 303.617 267, 290.675 267.917, 276.501 269.038 C 262.327 270.160, 250.357 270.947, 249.901 270.788 C 249.445 270.630, 261.093 265.832, 275.786 260.127 C 290.479 254.421, 302.831 249.455, 303.236 249.091 C 303.640 248.727, 291.040 245.520, 275.236 241.964 C 241.719 234.424, 241.301 235.080, 281.436 232.255 L 306.371 230.500 280.247 215.522 C 265.878 207.284, 254.257 200.410, 254.421 200.246 C 254.585 200.081, 267.439 202.902, 282.986 206.514 C 298.532 210.126, 311.404 212.929, 311.590 212.743 C 311.912 212.422, 304.655 204.414, 281.040 179.031 L 270.581 167.789 279.040 172.750 C 301.443 185.888, 323.162 198.167, 323.441 197.851 C 323.612 197.658, 320.014 189.738, 315.446 180.250 L 307.141 163 153.570 163 L 0 163 0 244.003 M 320.113 167.764 C 336.118 185.144, 339 188.059, 339 186.867 C 339 186.132, 338.242 180.462, 337.316 174.266 L 335.632 163 325.679 163 L 315.726 163 320.113 167.764 M 348.050 164.250 C 348.078 164.938, 350.060 169.325, 352.454 174 C 356.220 181.352, 356.881 182.162, 357.352 180 C 357.981 177.111, 360 164.660, 360 163.668 C 360 163.301, 357.300 163, 354 163 C 349.840 163, 348.015 163.383, 348.050 164.250 M 372.380 164.750 C 372.662 165.713, 373.422 170.233, 374.069 174.795 C 374.715 179.357, 375.365 182.957, 375.513 182.795 C 375.661 182.633, 377.826 178.113, 380.323 172.750 L 384.863 163 378.364 163 C 372.645 163, 371.927 163.210, 372.380 164.750 M 396.531 165.250 C 395.529 169.692, 392.957 187.291, 393.265 187.598 C 393.576 187.909, 408.663 171.931, 413.610 166.052 L 416.178 163 406.608 163 C 397.501 163, 397.014 163.109, 396.531 165.250 M 425 163.375 C 425 163.581, 421.179 171.715, 416.510 181.450 C 408.119 198.945, 408.057 199.128, 411.260 197.168 C 414.180 195.381, 457.088 170.520, 459.500 169.218 C 460.958 168.430, 458.357 171.352, 438.109 193.250 C 428.064 204.113, 420.276 213, 420.801 213 C 421.326 213, 434.267 210.081, 449.558 206.513 C 464.849 202.946, 477.486 200.152, 477.639 200.306 C 477.793 200.459, 466.206 207.316, 451.891 215.543 L 425.863 230.500 455.480 232.632 C 471.770 233.805, 485.274 234.941, 485.490 235.157 C 485.706 235.373, 473.084 238.434, 457.441 241.961 C 441.799 245.487, 429.008 248.626, 429.018 248.936 C 429.027 249.246, 441.173 254.192, 456.008 259.926 C 470.844 265.660, 482.827 270.507, 482.638 270.696 C 482.449 270.885, 470.475 270.106, 456.030 268.964 C 441.584 267.823, 428.646 267.027, 427.279 267.195 C 425.197 267.450, 428.554 270.501, 447.896 285.930 C 460.603 296.066, 471 304.479, 471 304.624 C 471 304.770, 468.863 304.024, 466.250 302.965 C 447.439 295.347, 415.601 283.065, 415.340 283.326 C 415.166 283.501, 421.409 292.949, 429.215 304.322 L 443.407 325 587.704 325 L 732 325 732 244 L 732 163 578.500 163 C 494.075 163, 425 163.169, 425 163.375 M 312.452 310.232 L 294.607 324.500 307.973 324.780 C 315.325 324.934, 321.665 324.709, 322.063 324.280 C 322.946 323.329, 331.074 296.740, 330.620 296.287 C 330.443 296.110, 322.267 302.385, 312.452 310.232 M 401.943 298.750 C 402.384 300.262, 404.403 306.788, 406.428 313.250 L 410.111 325 424.256 325 C 432.281 325, 437.989 324.626, 437.450 324.135 C 435.050 321.949, 401.963 296, 401.576 296 C 401.336 296, 401.501 297.238, 401.943 298.750 M 340.246 314.024 L 332.992 325 340.496 325 L 348 325 348 314 C 348 307.950, 347.887 303.011, 347.750 303.024 C 347.613 303.038, 344.236 307.988, 340.246 314.024 M 384 313.783 L 384 325 391.557 325 L 399.113 325 397.476 322.250 C 396.576 320.738, 393.176 315.690, 389.920 311.033 L 384 302.567 384 313.783 M 363.312 315 L 360.389 324.500 365.808 324.803 C 368.788 324.970, 371.404 324.929, 371.621 324.712 C 371.838 324.495, 370.715 320.084, 369.126 314.909 L 366.236 305.500 363.312 315" stroke="none" fill="#ffffff" fill-rule="evenodd"/><path d="M 0 81.500 L 0 163 153 163 C 276.534 163, 306 162.754, 306 161.722 C 306 161.019, 304.419 157.081, 302.487 152.972 L 298.975 145.500 307.408 154.250 L 315.841 163 325.420 163 L 335 163 335 160.466 C 335 159.072, 334.060 151.837, 332.911 144.388 C 331.761 136.940, 330.975 130.692, 331.163 130.504 C 331.350 130.316, 334.964 137.439, 339.192 146.331 L 346.881 162.500 353.410 162.795 C 359.521 163.071, 359.971 162.943, 360.429 160.795 C 360.698 159.533, 362.066 150.884, 363.468 141.574 C 364.870 132.265, 366.158 124.508, 366.330 124.336 C 366.502 124.164, 367.191 128.181, 367.862 133.262 C 368.532 138.343, 369.794 147.113, 370.666 152.750 L 372.251 163 378.693 163 L 385.135 163 393.612 145.750 C 398.275 136.262, 401.851 129.850, 401.558 131.500 C 400.539 137.240, 397 160.873, 397 161.933 C 397 162.614, 400.532 163.013, 406.750 163.036 L 416.500 163.072 425.304 153.786 L 434.107 144.500 430.685 151.500 C 428.802 155.350, 426.947 159.514, 426.563 160.753 L 425.863 163.006 579.182 162.753 L 732.500 162.500 732.756 81.250 L 733.012 -0 366.506 -0 L 0 0 0 81.500 M 0.477 82 C 0.477 126.825, 0.600 145.163, 0.750 122.750 C 0.900 100.338, 0.900 63.663, 0.750 41.250 C 0.600 18.838, 0.477 37.175, 0.477 82" stroke="none" fill="#ee3d22" fill-rule="evenodd"/></svg>